<?xml version="1.0" encoding="UTF-8"?>
<svg width="128" height="128" version="1.1" viewBox="0 0 128 128" xmlns="http://www.w3.org/2000/svg">
 <g>
  <g>
   <path d="m24.403 24.402v58.096c15.411 3.7054 26.886 9.0787 39.598 17.502 12.712-8.4233 24.187-13.797 39.598-17.502v-58.096z" fill="#194030"/>
   <path d="m30.058 30.059-1e-6 53.924c11.448 3.2768 20.854 7.7042 30.756 13.959h6.3711c9.9016-6.2548 19.307-10.682 30.756-13.959l1e-6 -53.924z" fill="#28664c"/>
   <path d="m64 8-56 56 19.189 19.189c14.037 3.6759 24.874 8.901 36.811 16.811 11.937-7.9096 22.774-13.135 36.811-16.811l19.189-19.189z" fill="#194030"/>
   <path d="m64 16-48 48 22.891 22.891c8.8233 3.3049 16.698 7.5357 25.109 13.109 8.4116-5.5737 16.286-9.8045 25.109-13.109l22.891-22.891z" fill="#28664c"/>
  </g>
  <g>
   <path d="m72 40c-4.4183 0-8 3.5817-8 8 0 4.4183 3.5817 8 8 8 4.4183 0 8-3.5817 8-8 0-4.4183-3.5817-8-8-8zm-24 16-28 28 44 24 40-20-24-20-16 8z" fill="#dee3db" stroke-width="0"/>
   <path d="m16 72-4 16c23.068 5.9145 32 8 52 24 20-16 38.148-21.666 52-24l-4-16c-22.157 3.6929-32.102 9.4654-48 20-15.898-10.535-25.843-16.307-48-20z" fill="#b69154"/>
   <path d="m12 80-4 16c23.068 5.9145 36 8 56 24 20-16 42.148-21.666 56-24l-4-16c-22.157 3.6929-36.102 9.4654-52 20-15.898-10.535-29.843-16.307-52-20z" fill="#ecd380"/>
  </g>
 </g>
</svg>
