<svg xmlns="http://www.w3.org/2000/svg" width="891.492" height="156.305">
    <path d="M 704.10938 0 L 695.67188 6.6796875 C 693.89063 8.0859361 693 9.6562517 693 11.390625 C 693 12.937499 693.84375 14.484377 695.53125 16.03125 L 697.35938 17.71875 C 690.46876 21.562496 684.44531 24.445315 679.28906 26.367188 L 685.75781 26.367188 C 688.24218 26.367188 691.05469 25.570311 694.19531 23.976562 L 701.15625 20.53125 C 702.93749 21.749999 704.57813 22.359375 706.07812 22.359375 L 709.17188 22.359375 L 705.09375 18.703125 C 708.56249 17.156251 710.29688 15.328123 710.29688 13.21875 C 710.29688 12.000001 709.26562 9.7968718 707.20312 6.609375 C 705.14063 3.4218782 704.10938 1.2187488 704.10938 0 z M 701.50781 8.578125 C 704.13281 8.578125 705.44531 9.8906276 705.44531 12.515625 C 705.44531 13.078124 704.20312 14.109376 701.71875 15.609375 C 699.1875 13.593752 697.92188 12.210937 697.92188 11.460938 C 697.92188 9.5390641 699.11719 8.578125 701.50781 8.578125 z M 558.98438 8.859375 L 553.07812 14.90625 C 550.07813 17.953122 548.57812 20.671877 548.57812 23.0625 C 548.57813 24.046874 548.8125 25.007813 549.28125 25.945312 C 549.75 26.835937 550.38281 27.632814 551.17969 28.335938 C 552.02343 28.992187 552.98437 29.53125 554.0625 29.953125 C 555.14063 30.374999 556.31251 30.585938 557.57812 30.585938 C 558.79688 30.585938 559.94531 30.374999 561.02344 29.953125 C 562.10156 29.53125 563.03906 28.945312 563.83594 28.195312 C 564.67968 27.445313 565.33593 26.578124 565.80469 25.59375 C 566.32031 24.562501 566.57812 23.484374 566.57812 22.359375 C 566.57813 20.531251 565.31249 18.351559 562.78125 15.820312 C 560.25 13.289065 558.98438 10.968748 558.98438 8.859375 z M 154.47656 14.976562 C 147.35157 23.226554 142.19531 27.351562 139.00781 27.351562 C 144.39843 36.867178 147.09375 43.125003 147.09375 46.125 L 147.09375 103.64062 L 168.53906 103.64062 L 220.99219 103.64062 C 215.78907 100.35937 212.27344 96.843746 210.44531 93.09375 L 204.53906 93.09375 C 202.85156 93.09375 201.16406 92.718749 199.47656 91.96875 C 197.83594 91.218751 196.33593 90.210937 194.97656 88.945312 C 193.66406 87.632814 192.58593 86.109373 191.74219 84.375 C 190.94531 82.593752 190.54688 80.695311 190.54688 78.679688 C 190.54688 77.039064 190.875 75.328123 191.53125 73.546875 C 192.1875 71.765627 193.28906 69.937498 194.83594 68.0625 L 201.02344 60.539062 C 202.71094 58.52344 203.55469 56.835936 203.55469 55.476562 L 203.55469 37.195312 L 187.45312 53.15625 L 194.41406 53.15625 C 195.53906 53.15625 196.10156 53.789064 196.10156 55.054688 C 196.10156 55.898437 193.75781 58.523442 189.07031 62.929688 L 181.96875 69.679688 C 175.64063 75.679682 172.47656 81.492193 172.47656 87.117188 C 172.47656 90.07031 173.03906 92.062501 174.16406 93.09375 L 168.53906 93.09375 L 162 93.09375 C 161.48437 93.09375 160.80468 92.789062 159.96094 92.179688 C 159.11719 91.523438 158.29687 90.749999 157.5 89.859375 C 156.70313 88.968751 156 88.078124 155.39062 87.1875 C 154.78125 86.250001 154.47656 85.523437 154.47656 85.007812 L 154.47656 14.976562 z M 785.67188 14.976562 C 778.96876 23.226554 773.8125 27.351562 770.20312 27.351562 C 775.59375 36.867178 778.28906 43.125003 778.28906 46.125 L 778.28906 90.140625 C 778.28906 92.671872 778.57031 94.80469 779.13281 96.539062 C 779.74219 98.273436 780.72656 99.67969 782.08594 100.75781 C 783.49218 101.78906 785.34375 102.53907 787.64062 103.00781 C 789.9375 103.42969 792.79688 103.64063 796.21875 103.64062 C 802.12499 103.64062 805.54688 103.03125 806.48438 101.8125 C 804.89063 101.29687 803.46094 100.87499 802.19531 100.54688 C 800.97657 100.21875 799.92188 99.914064 799.03125 99.632812 C 796.45313 98.789063 794.29687 97.851561 792.5625 96.820312 C 790.875 95.789064 789.51563 94.593748 788.48438 93.234375 C 787.45313 91.875001 786.72656 90.304686 786.30469 88.523438 C 785.88281 86.742189 785.67188 84.679685 785.67188 82.335938 L 785.67188 14.976562 z M 557.29688 16.3125 L 558.84375 18 C 559.40625 18.562499 559.92188 19.125001 560.39062 19.6875 C 560.85938 20.249999 561.23438 20.812501 561.51562 21.375 C 561.79688 21.890624 561.9375 22.40625 561.9375 22.921875 C 561.9375 23.343749 561.79688 23.765625 561.51562 24.1875 C 561.23438 24.609374 560.88281 24.984375 560.46094 25.3125 C 560.03906 25.59375 559.54687 25.828125 558.98438 26.015625 C 558.46876 26.203125 557.95313 26.296875 557.4375 26.296875 C 554.625 26.296875 553.21875 24.984372 553.21875 22.359375 C 553.21875 21.328126 553.66406 20.320312 554.55469 19.335938 C 555.49219 18.304689 556.40626 17.296874 557.29688 16.3125 z M 194.55469 18.421875 C 192.21094 18.421875 187.52343 20.062503 180.49219 23.34375 L 165.58594 30.164062 L 172.61719 30.164062 C 174.86719 30.164062 179.57813 28.453121 186.75 25.03125 C 191.01562 23.062502 194.36719 21.539062 196.80469 20.460938 C 199.28906 19.335939 200.90625 18.656249 201.65625 18.421875 L 194.55469 18.421875 z M 365.34375 18.421875 C 363 18.421875 358.31249 20.062503 351.28125 23.34375 L 336.375 30.164062 L 343.40625 30.164062 C 345.65625 30.164062 350.3672 28.453121 357.53906 25.03125 C 361.80468 23.062502 365.15625 21.539062 367.59375 20.460938 C 370.07812 19.335939 371.69531 18.656249 372.44531 18.421875 L 365.34375 18.421875 z M 16.171875 20.320312 L 10.265625 26.367188 C 7.265628 29.41406 5.765625 32.132815 5.765625 34.523438 C 5.765625 35.507812 6.0000005 36.468751 6.46875 37.40625 C 6.9374995 38.296874 7.5703133 39.09375 8.3671875 39.796875 C 9.2109367 40.453124 10.171876 40.992188 11.25 41.414062 C 12.328124 41.835937 13.500002 42.046875 14.765625 42.046875 C 15.984374 42.046875 17.132814 41.835937 18.210938 41.414062 C 19.289062 40.992188 20.226564 40.406249 21.023438 39.65625 C 21.867187 38.906251 22.523438 38.039062 22.992188 37.054688 C 23.507812 36.023439 23.765625 34.945311 23.765625 33.820312 C 23.765625 31.99219 22.499997 29.812497 19.96875 27.28125 C 17.437503 24.750003 16.171875 22.429686 16.171875 20.320312 z M 281.67188 24.328125 L 275.76562 30.375 C 272.76563 33.421872 271.26562 36.140627 271.26562 38.53125 C 271.26562 39.515624 271.5 40.476563 271.96875 41.414062 C 272.4375 42.304687 273.07031 43.101564 273.86719 43.804688 C 274.71093 44.460937 275.67187 45 276.75 45.421875 C 277.82813 45.843749 279.00001 46.054688 280.26562 46.054688 C 281.48438 46.054688 282.63281 45.843749 283.71094 45.421875 C 284.78906 45 285.72656 44.414062 286.52344 43.664062 C 287.36718 42.914063 288.02343 42.046874 288.49219 41.0625 C 289.00781 40.031251 289.26562 38.953124 289.26562 37.828125 C 289.26562 36.000001 287.99999 33.82031 285.46875 31.289062 C 282.9375 28.757815 281.67188 26.437498 281.67188 24.328125 z M 14.484375 27.773438 L 16.03125 29.460938 C 16.593749 30.023437 17.109375 30.585938 17.578125 31.148438 C 18.046875 31.710937 18.421875 32.273438 18.703125 32.835938 C 18.984375 33.351562 19.125 33.867188 19.125 34.382812 C 19.125 34.804687 18.984375 35.226563 18.703125 35.648438 C 18.421875 36.070312 18.070312 36.445313 17.648438 36.773438 C 17.226563 37.054687 16.734374 37.289063 16.171875 37.476562 C 15.656251 37.664062 15.140625 37.757812 14.625 37.757812 C 11.812503 37.757812 10.40625 36.44531 10.40625 33.820312 C 10.40625 32.789064 10.851563 31.781249 11.742188 30.796875 C 12.679687 29.765626 13.593751 28.757812 14.484375 27.773438 z M 279.98438 31.78125 L 281.53125 33.46875 C 282.09375 34.031249 282.60938 34.593751 283.07812 35.15625 C 283.54688 35.718749 283.92188 36.281251 284.20312 36.84375 C 284.48438 37.359374 284.625 37.875 284.625 38.390625 C 284.625 38.812499 284.48438 39.234375 284.20312 39.65625 C 283.92188 40.078124 283.57031 40.453125 283.14844 40.78125 C 282.72656 41.0625 282.23437 41.296875 281.67188 41.484375 C 281.15626 41.671875 280.64063 41.765625 280.125 41.765625 C 277.3125 41.765625 275.90625 40.453122 275.90625 37.828125 C 275.90625 36.796876 276.35156 35.789062 277.24219 34.804688 C 278.17969 33.773439 279.09376 32.765624 279.98438 31.78125 z M 694.26562 33.398438 C 688.78126 37.851558 686.03906 40.640626 686.03906 41.765625 C 686.03906 43.171874 687.07031 44.296876 689.13281 45.140625 C 692.03906 46.359374 694.38282 48.164065 696.16406 50.554688 C 698.60156 46.804691 699.82031 44.320311 699.82031 43.101562 C 699.82031 42.398439 699.53906 41.671874 698.97656 40.921875 C 698.41406 40.125 697.80468 39.328124 697.14844 38.53125 C 696.49218 37.687501 695.85937 36.843749 695.25 36 C 694.64061 35.109376 694.31249 34.242187 694.26562 33.398438 z M 710.50781 33.398438 C 705.02344 37.851558 702.28125 40.640626 702.28125 41.765625 C 702.28125 43.171874 703.3125 44.296876 705.375 45.140625 C 708.28124 46.359374 710.625 48.164065 712.40625 50.554688 C 714.84375 46.804691 716.0625 44.320311 716.0625 43.101562 C 716.0625 42.398439 715.78125 41.671874 715.21875 40.921875 C 714.65625 40.125 714.04688 39.328124 713.39062 38.53125 C 712.73438 37.687501 712.10156 36.843749 711.49219 36 C 710.8828 35.109376 710.55468 34.242187 710.50781 33.398438 z M 463.00781 33.890625 L 457.10156 39.9375 C 454.10157 42.984372 452.60156 45.703127 452.60156 48.09375 C 452.60156 49.078124 452.83593 50.039063 453.30469 50.976562 C 453.77343 51.867187 454.40625 52.664064 455.20312 53.367188 C 456.04688 54.023437 457.00781 54.5625 458.08594 54.984375 C 459.16406 55.406249 460.33594 55.617188 461.60156 55.617188 C 462.82031 55.617188 463.96876 55.406249 465.04688 54.984375 C 466.125 54.5625 467.0625 53.976562 467.85938 53.226562 C 468.70313 52.476563 469.35938 51.609374 469.82812 50.625 C 470.34375 49.593751 470.60156 48.515624 470.60156 47.390625 C 470.60156 45.562501 469.33593 43.38281 466.80469 40.851562 C 464.27344 38.320315 463.00781 35.999998 463.00781 33.890625 z M 631.05469 34.171875 C 628.71094 34.171875 624.02343 35.812503 616.99219 39.09375 L 602.08594 45.914062 L 609.11719 45.914062 C 611.36719 45.914062 616.07813 44.203121 623.25 40.78125 C 627.51562 38.812502 630.86719 37.289062 633.30469 36.210938 C 635.78906 35.085939 637.40625 34.406249 638.15625 34.171875 L 631.05469 34.171875 z M 835.3125 35.578125 C 832.96875 35.578125 828.28124 37.218753 821.25 40.5 L 806.34375 47.320312 L 813.375 47.320312 C 815.625 47.320312 820.33595 45.609371 827.50781 42.1875 C 831.77343 40.218752 835.125 38.695312 837.5625 37.617188 C 840.04687 36.492189 841.66406 35.812499 842.41406 35.578125 L 835.3125 35.578125 z M 374.34375 37.195312 L 358.24219 53.15625 L 365.20312 53.15625 C 366.32812 53.15625 366.89062 53.789064 366.89062 55.054688 C 366.89062 55.898437 364.54687 58.523442 359.85938 62.929688 L 352.75781 69.679688 C 346.42969 75.679682 343.26563 81.492193 343.26562 87.117188 C 343.26562 90.07031 343.82813 92.062501 344.95312 93.09375 L 339.32812 93.09375 L 330.82031 93.09375 C 330.82031 90.187503 330.14062 87.374997 328.78125 84.65625 L 322.3125 72 C 320.25 67.968754 319.21875 65.132811 319.21875 63.492188 C 319.21875 61.523439 319.47656 59.695311 319.99219 58.007812 C 318.63281 59.273437 317.22656 60.562501 315.77344 61.875 C 314.32031 63.140623 312.98438 64.453126 311.76562 65.8125 C 310.59375 67.171873 309.60937 68.578126 308.8125 70.03125 C 308.01563 71.484373 307.61719 72.984376 307.61719 74.53125 C 307.61719 77.109372 308.71876 80.343754 310.92188 84.234375 L 315.35156 92.039062 C 316.89843 94.804685 317.67188 97.078127 317.67188 98.859375 C 317.67187 100.73438 316.75781 102.60938 314.92969 104.48438 L 300.86719 118.82812 C 298.19531 121.54687 296.48437 122.90625 295.73438 122.90625 C 294.79688 122.90625 292.68749 121.3125 289.40625 118.125 L 270.07031 99 C 267.39844 96.421877 266.0625 94.406248 266.0625 92.953125 C 266.0625 92.4375 266.25 91.687499 266.625 90.703125 C 267 89.671876 267.60938 88.406249 268.45312 86.90625 L 271.6875 81.140625 L 258.46875 93.9375 C 256.125 96.187498 254.95312 98.296874 254.95312 100.26562 C 254.95312 101.4375 256.45313 103.5 259.45312 106.45312 L 282.86719 129.58594 C 285.72656 132.35155 288.375 133.73438 290.8125 133.73438 C 293.39062 133.73438 296.01563 132.37499 298.6875 129.65625 L 324.21094 103.64062 L 339.32812 103.64062 L 391.78125 103.64062 C 386.57813 100.35937 383.0625 96.843746 381.23438 93.09375 L 375.32812 93.09375 C 373.64063 93.09375 371.95312 92.718749 370.26562 91.96875 C 368.62501 91.218751 367.125 90.210937 365.76562 88.945312 C 364.45313 87.632814 363.375 86.109373 362.53125 84.375 C 361.73438 82.593752 361.33594 80.695311 361.33594 78.679688 C 361.33594 77.039064 361.66407 75.328123 362.32031 73.546875 C 362.97657 71.765627 364.07813 69.937498 365.625 68.0625 L 371.8125 60.539062 C 373.5 58.52344 374.34375 56.835936 374.34375 55.476562 L 374.34375 37.195312 z M 756.49219 37.828125 C 754.14844 37.828125 749.46093 39.468753 742.42969 42.75 L 727.52344 49.570312 L 734.55469 49.570312 C 736.80469 49.570312 741.51563 47.859371 748.6875 44.4375 C 752.95312 42.468752 756.30469 40.945312 758.74219 39.867188 C 761.22656 38.742189 762.84375 38.062499 763.59375 37.828125 L 756.49219 37.828125 z M 559.47656 39.023438 C 553.99219 43.476558 551.25 46.265626 551.25 47.390625 C 551.25 48.796874 552.28125 49.921876 554.34375 50.765625 C 557.24999 51.984374 559.59375 53.789065 561.375 56.179688 C 563.8125 52.429691 565.03125 49.945311 565.03125 48.726562 C 565.03125 48.023439 564.75 47.296874 564.1875 46.546875 C 563.625 45.75 563.01563 44.953124 562.35938 44.15625 C 561.70313 43.312501 561.07031 42.468749 560.46094 41.625 C 559.85155 40.734376 559.52343 39.867187 559.47656 39.023438 z M 461.32031 41.34375 L 462.86719 43.03125 C 463.42969 43.593749 463.94532 44.156251 464.41406 44.71875 C 464.88282 45.281249 465.25782 45.843751 465.53906 46.40625 C 465.82032 46.921874 465.96094 47.4375 465.96094 47.953125 C 465.96094 48.374999 465.82032 48.796875 465.53906 49.21875 C 465.25782 49.640624 464.90625 50.015625 464.48438 50.34375 C 464.0625 50.625 463.57031 50.859375 463.00781 51.046875 C 462.49219 51.234375 461.97656 51.328125 461.46094 51.328125 C 458.64844 51.328125 457.24219 50.015622 457.24219 47.390625 C 457.24219 46.359376 457.68751 45.351562 458.57812 44.367188 C 459.51562 43.335939 460.42969 42.328124 461.32031 41.34375 z M 581.41406 49.710938 L 556.875 74.320312 C 554.25 76.94531 552.9375 79.218752 552.9375 81.140625 C 552.9375 83.812497 554.27344 86.437502 556.94531 89.015625 L 566.22656 97.945312 C 569.08593 100.66406 570.51563 102.5625 570.51562 103.64062 C 570.51562 104.95312 569.60156 105.60938 567.77344 105.60938 C 567.16406 105.60938 564.84374 103.52344 560.8125 99.351562 C 557.3472 95.765383 554.1611 93.730028 551.25 93.226562 L 551.25 93.09375 L 542.25 93.09375 L 536.69531 81.421875 C 535.19531 78.375003 533.74218 76.851562 532.33594 76.851562 L 483.96094 76.851562 L 481.00781 71.085938 L 468 83.882812 C 470.0625 84.914061 471.5625 86.320314 472.5 88.101562 L 476.36719 95.765625 C 477.11719 97.218748 477.49219 98.601564 477.49219 99.914062 C 477.49219 102.35156 476.57812 104.4375 474.75 106.17188 L 466.59375 114.04688 C 463.82813 116.76562 462.11718 118.125 461.46094 118.125 C 460.42969 118.125 458.32031 116.53125 455.13281 113.34375 L 440.85938 99 C 438.1875 96.328127 436.85156 94.312498 436.85156 92.953125 C 436.85156 92.4375 437.03906 91.687499 437.41406 90.703125 C 437.78906 89.671876 438.39844 88.406249 439.24219 86.90625 L 442.47656 81.140625 L 429.25781 93.9375 C 426.91407 96.187498 425.74219 98.296874 425.74219 100.26562 C 425.74219 101.39062 427.24219 103.45313 430.24219 106.45312 L 448.59375 124.80469 C 451.35937 127.5703 454.00782 128.95312 456.53906 128.95312 C 458.69531 128.95312 461.22657 127.54687 464.13281 124.73438 L 482.27344 107.15625 C 483.02344 106.40625 483.67969 105.82031 484.24219 105.39844 C 484.85156 104.92968 485.48438 104.57812 486.14062 104.34375 C 486.79688 104.0625 487.54688 103.875 488.39062 103.78125 C 489.28125 103.6875 490.40625 103.64062 491.76562 103.64062 L 550.05469 103.64062 C 551.32031 103.64062 552.79688 104.15625 554.48438 105.1875 C 556.17187 106.21875 557.78906 107.48438 559.33594 108.98438 C 560.92968 110.48437 562.3125 112.05469 563.48438 113.69531 C 564.65625 115.38281 565.38282 116.88281 565.66406 118.19531 L 580.78125 103.64062 L 601.52344 103.64062 L 630 103.64062 C 636.93749 110.85936 645.35157 114.46875 655.24219 114.46875 C 656.60156 114.46875 657.72656 114.21094 658.61719 113.69531 C 656.83594 112.75781 655.33593 112.10156 654.11719 111.72656 C 648.39844 108.72657 643.47656 103.10155 639.35156 94.851562 L 625.28906 66.867188 C 623.46094 63.210941 622.00781 61.382812 620.92969 61.382812 C 619.52344 61.382812 617.32031 62.882815 614.32031 65.882812 L 601.52344 78.679688 C 603.53906 77.648439 605.55469 77.132812 607.57031 77.132812 C 609.07031 77.132812 610.61719 77.671876 612.21094 78.75 C 613.80468 79.828124 615.35156 81.515627 616.85156 83.8125 L 622.89844 93.09375 L 601.52344 93.09375 L 591.11719 93.09375 C 592.42969 91.312502 593.08594 88.921872 593.08594 85.921875 C 593.08594 83.859377 592.07812 80.835934 590.0625 76.851562 L 583.45312 63.773438 C 581.43751 59.789067 580.42969 56.929686 580.42969 55.195312 C 580.42969 53.742189 580.75782 51.914061 581.41406 49.710938 z M 701.92969 51.046875 L 692.36719 60.046875 L 696.58594 68.132812 L 684.91406 79.875 C 682.42969 82.359372 681.1875 85.289066 681.1875 88.664062 C 681.1875 89.507812 681.32813 90.421876 681.60938 91.40625 C 681.89063 92.390624 682.19531 93.375001 682.52344 94.359375 C 682.89844 95.296874 683.22657 96.164064 683.50781 96.960938 C 683.78907 97.710937 683.92969 98.296875 683.92969 98.71875 C 683.92969 99.562499 682.96875 101.20312 681.04688 103.64062 L 733.99219 103.64062 C 735.07031 103.64062 736.3125 104.15625 737.71875 105.1875 C 739.125 106.21875 740.48438 107.48438 741.79688 108.98438 C 743.15625 110.48437 744.32813 112.07813 745.3125 113.76562 C 746.34375 115.45312 747 116.92969 747.28125 118.19531 L 758.17969 107.92969 C 759.44531 106.71094 760.45313 105.67968 761.20312 104.83594 C 762 103.99219 762.58594 103.19531 762.96094 102.44531 C 763.33594 101.69531 763.57032 100.94531 763.66406 100.19531 C 763.80469 99.445315 763.875 98.531249 763.875 97.453125 C 763.875 95.531252 762.86719 92.507808 760.85156 88.382812 L 756.21094 79.101562 C 754.19531 75.117192 753.1875 72.257811 753.1875 70.523438 C 753.1875 69.070314 753.51563 67.242186 754.17188 65.039062 L 745.45312 73.40625 C 743.15625 75.984372 742.00781 78.703128 742.00781 81.5625 C 742.00781 83.203123 743.20313 86.437504 745.59375 91.265625 L 748.6875 97.523438 C 750.23437 100.71094 751.00781 102.75 751.00781 103.64062 C 751.00781 104.71874 750.60937 105.79687 749.8125 106.875 L 742.57031 99.421875 C 738.56503 95.371593 735.70755 93.271111 733.99219 93.109375 L 733.99219 93.09375 L 723.58594 93.09375 L 714.02344 74.53125 C 710.74219 68.156256 709.10156 64.007811 709.10156 62.085938 C 709.10156 59.507815 709.61719 56.812497 710.64844 54 L 705.9375 58.710938 L 701.92969 51.046875 z M 28.828125 54 L 3.09375 79.875 C 1.0312521 81.937498 0 84.21094 0 86.695312 C 0 88.335936 0.82031414 90.726566 2.4609375 93.867188 L 6.46875 101.46094 C 8.3437481 105.02343 9.28125 107.67188 9.28125 109.40625 C 9.28125 111.84375 8.3671857 114.35156 6.5390625 116.92969 L 3.1640625 120.79688 C 9.3046814 120.5625 13.992191 118.92187 17.226562 115.875 C 20.460935 112.875 22.078125 108.79687 22.078125 103.64062 L 52.171875 103.64062 L 126.91406 103.64062 C 130.00781 103.64062 132.63282 102.63281 134.78906 100.61719 C 133.71094 100.61719 132.79687 100.54688 132.04688 100.40625 C 131.29688 100.26562 130.59375 99.914061 129.9375 99.351562 C 129.32813 98.789063 128.69532 97.968749 128.03906 96.890625 C 127.38282 95.765626 126.60938 94.218748 125.71875 92.25 L 120.58594 81.421875 C 119.08594 78.375003 117.63281 76.851562 116.22656 76.851562 L 67.851562 76.851562 L 65.179688 71.085938 L 52.171875 83.882812 C 54.468747 85.007811 55.96875 86.414064 56.671875 88.101562 L 58.78125 93.09375 L 52.171875 93.09375 L 41.765625 93.09375 L 31.5 73.125 C 28.687503 67.64063 27.28125 63.960936 27.28125 62.085938 C 27.28125 59.507815 27.796876 56.812497 28.828125 54 z M 839.8125 55.757812 L 814.64062 80.929688 C 813.70313 81.867187 812.8125 82.945314 811.96875 84.164062 C 811.125 85.382811 810.70312 86.765626 810.70312 88.3125 C 810.70313 89.062499 810.75 89.695313 810.84375 90.210938 C 810.9375 90.679687 811.125 91.148438 811.40625 91.617188 C 811.6875 92.085937 812.08594 92.601563 812.60156 93.164062 C 813.11719 93.726562 813.79688 94.429688 814.64062 95.273438 L 825.46875 105.96094 C 827.62499 108.11718 828.70313 109.66406 828.70312 110.60156 C 828.70312 111.58594 827.76562 112.99219 825.89062 114.82031 L 813.65625 126.63281 C 812.10938 128.13281 810.60938 129.42187 809.15625 130.5 C 807.70312 131.625 806.29687 132.5625 804.9375 133.3125 C 803.625 134.10937 802.33594 134.74218 801.07031 135.21094 C 799.80469 135.72656 798.5625 136.14844 797.34375 136.47656 C 798.5625 136.94532 800.01563 137.17969 801.70312 137.17969 C 808.40624 137.17969 813.91407 135.07031 818.22656 130.85156 L 846.07031 103.64062 C 849.72656 100.07813 851.55469 96.703122 851.55469 93.515625 C 851.55469 90.187503 850.21875 85.851557 847.54688 80.507812 L 842.90625 71.226562 C 840.42188 66.304693 839.17969 62.695311 839.17969 60.398438 C 839.17969 58.804689 839.39063 57.257811 839.8125 55.757812 z M 881.08594 57.164062 L 872.36719 65.53125 C 870.07031 68.109372 868.92187 70.828128 868.92188 73.6875 C 868.92188 75.328123 870.11719 78.562504 872.50781 83.390625 L 875.60156 89.648438 C 877.89843 94.242183 879.04688 96.796875 879.04688 97.3125 C 879.04688 99.609371 877.21874 102.53907 873.5625 106.10156 L 852.46875 126.63281 C 849.42188 129.58594 846.5625 131.78906 843.89062 133.24219 C 841.21875 134.74219 838.64062 135.82032 836.15625 136.47656 C 837.375 136.94532 838.82813 137.17969 840.51562 137.17969 C 847.21874 137.17969 852.72657 135.07031 857.03906 130.85156 L 885.9375 102.58594 C 889.64062 98.929689 891.49219 95.296871 891.49219 91.6875 C 891.49219 89.296877 890.25 85.570307 887.76562 80.507812 L 883.125 71.226562 C 881.10938 67.242192 880.10156 64.382811 880.10156 62.648438 C 880.10156 61.195314 880.42968 59.367186 881.08594 57.164062 z M 289.89844 66.585938 C 284.41406 71.039058 281.67187 73.828126 281.67188 74.953125 C 281.67188 76.359374 282.70313 77.484376 284.76562 78.328125 C 287.67188 79.546874 290.01563 81.351565 291.79688 83.742188 C 294.23437 79.992191 295.45312 77.507811 295.45312 76.289062 C 295.45312 75.585939 295.17187 74.859374 294.60938 74.109375 C 294.04688 73.3125 293.4375 72.515624 292.78125 71.71875 C 292.125 70.875001 291.49219 70.031249 290.88281 69.1875 C 290.27343 68.296876 289.9453 67.429687 289.89844 66.585938 z M 575.22656 69.1875 C 575.17968 69.421874 575.1328 69.796875 575.08594 70.3125 L 575.08594 72.140625 C 575.08594 72.984374 575.41407 73.992189 576.07031 75.164062 L 581.97656 86.34375 C 582.91406 88.124998 583.38281 89.625001 583.38281 90.84375 C 583.38281 92.343749 581.92968 94.406253 579.02344 97.03125 L 579.02344 96.679688 C 579.0703 96.539063 579.09375 96.398438 579.09375 96.257812 C 579.04688 95.554689 578.90625 94.804687 578.67188 94.007812 C 578.4375 93.164063 577.94531 92.062498 577.19531 90.703125 L 571.99219 81.140625 C 570.86719 79.125002 570.30469 77.437498 570.30469 76.078125 C 570.30469 74.203127 571.94532 71.906247 575.22656 69.1875 z M 833.625 75.234375 C 833.57811 75.468749 833.53124 75.84375 833.48438 76.359375 L 833.48438 78.1875 C 833.48437 79.031249 833.8125 80.039064 834.46875 81.210938 L 840.375 92.390625 C 841.3125 94.171873 841.78125 95.671876 841.78125 96.890625 C 841.78125 98.390624 840.32813 100.45312 837.42188 103.07812 L 837.42188 102.72656 C 837.46874 102.58594 837.49219 102.44531 837.49219 102.30469 C 837.44531 101.60156 837.30469 100.85156 837.07031 100.05469 C 836.83594 99.210936 836.34375 98.109373 835.59375 96.75 L 830.39062 87.1875 C 829.26563 85.171877 828.70312 83.484373 828.70312 82.125 C 828.70312 80.250002 830.34375 77.953122 833.625 75.234375 z M 20.320312 76.710938 C 20.320312 78.257811 21.093751 80.531253 22.640625 83.53125 L 27.492188 93.09375 C 27.023438 93.140623 26.531249 93.164062 26.015625 93.164062 L 24.398438 93.164062 L 22.5 93.164062 C 21.890625 93.164062 21.210937 93.140623 20.460938 93.09375 L 17.15625 86.765625 C 16.312501 85.171877 15.890625 83.765624 15.890625 82.546875 C 15.890625 82.171875 16.101563 81.679687 16.523438 81.070312 C 16.992187 80.414063 17.484375 79.781249 18 79.171875 C 18.562499 78.515626 19.078125 77.953125 19.546875 77.484375 L 20.320312 76.710938 z M 702.14062 76.710938 C 702.14062 78.257811 702.91406 80.531253 704.46094 83.53125 L 709.3125 93.09375 C 708.84375 93.140623 708.35156 93.164062 707.83594 93.164062 L 706.21875 93.164062 L 704.32031 93.164062 C 703.71094 93.164062 703.03125 93.140623 702.28125 93.09375 L 698.97656 86.765625 C 698.13282 85.171877 697.71094 83.765624 697.71094 82.546875 C 697.71094 82.171875 697.92188 81.679687 698.34375 81.070312 C 698.8125 80.414063 699.30469 79.781249 699.82031 79.171875 C 700.38281 78.515626 700.89843 77.953125 701.36719 77.484375 C 701.83594 77.015623 702.09376 76.757811 702.14062 76.710938 z M 72.84375 87.398438 L 110.10938 87.398438 L 113.0625 93.09375 L 75.65625 93.09375 L 72.84375 87.398438 z M 488.95312 87.398438 L 526.21875 87.398438 L 529.17188 93.09375 L 491.76562 93.09375 L 488.95312 87.398438 z M 739.19531 116.64844 C 733.71094 121.10156 730.96875 123.89063 730.96875 125.01562 C 730.96875 126.42187 732 127.54688 734.0625 128.39062 C 736.96874 129.60938 739.3125 131.41406 741.09375 133.80469 C 743.53125 130.05469 744.75 127.57031 744.75 126.35156 C 744.75 125.64844 744.46875 124.89844 743.90625 124.10156 C 743.34375 123.35156 742.73438 122.55468 742.07812 121.71094 C 741.42188 120.91406 740.78906 120.07031 740.17969 119.17969 C 739.5703 118.33594 739.24218 117.49218 739.19531 116.64844 z M 755.4375 116.64844 C 749.95313 121.10156 747.21094 123.89063 747.21094 125.01562 C 747.21094 126.42187 748.24219 127.54688 750.30469 128.39062 C 753.21093 129.60938 755.55469 131.41406 757.33594 133.80469 C 759.77344 130.05469 760.99219 127.57031 760.99219 126.35156 C 760.99219 125.64844 760.71094 124.89844 760.14844 124.10156 C 759.58594 123.35156 758.97657 122.55468 758.32031 121.71094 C 757.66407 120.91406 757.03125 120.07031 756.42188 119.17969 C 755.8125 118.33594 755.48437 117.49218 755.4375 116.64844 z M 95.765625 120.16406 C 93.421877 120.16406 88.734368 121.80469 81.703125 125.08594 L 66.796875 131.90625 L 73.828125 131.90625 C 76.078123 131.90625 80.78907 130.19531 87.960938 126.77344 C 92.226559 124.80469 95.578127 123.25781 98.015625 122.13281 C 100.5 121.05469 102.11719 120.39844 102.86719 120.16406 L 95.765625 120.16406 z M 867.09375 144.5625 C 864.75 144.5625 860.06249 146.20313 853.03125 149.48438 L 838.125 156.30469 L 845.15625 156.30469 C 847.40625 156.30469 852.1172 154.59375 859.28906 151.17188 C 863.55468 149.20313 866.90625 147.65625 869.34375 146.53125 C 871.82812 145.45312 873.44531 144.79687 874.19531 144.5625 L 867.09375 144.5625 z"/>
</svg>