<svg xmlns="http://www.w3.org/2000/svg">
    <symbol id="logo" viewBox="0 192 2048 640">
        <path d="m 1728,192 -93.7277,93.72768 H 1501.7277 V 418.27232 L 1408,512 l 45.7143,45.71429 c 20.8622,3.47702 39.6839,7.31582 57.221,11.50669 L 1453.7143,512 1728,237.71429 2002.2857,512 l -57.2209,57.22098 c 17.5371,-4.19087 36.3587,-8.02967 57.2209,-11.50669 L 2048,512 1954.2724,418.27232 V 285.72768 h -132.5447 z m -193.9509,126.04911 h 67.9018 l -67.9018,67.90178 z m 320,0 h 67.9018 v 67.90178 z m -80.3348,56.80803 c -25.2472,0 -45.7143,20.46708 -45.7143,45.71429 0,25.2472 20.4671,45.71428 45.7143,45.71428 25.2472,0 45.7143,-20.46708 45.7143,-45.71428 0,-25.24721 -20.4671,-45.71429 -45.7143,-45.71429 z m -137.1429,91.42857 -107.5334,107.53348 c 78.1954,21.10665 128.378,51.4106 198.962,98.18081 56.4266,-37.38921 99.7493,-64.26367 154.7991,-84.33035 L 1819.4286,534.85714 1728,580.57143 Z M 1430.8572,603.42857 1408,694.85714 c 131.8144,33.79715 205.7144,45.7144 320,137.14286 114.2856,-91.42846 240.8482,-123.80651 320,-137.14286 l -22.8571,-91.42857 C 1898.5298,624.53074 1818.8481,657.51674 1728,717.71429 1637.1519,657.51674 1557.4702,624.53074 1430.8572,603.42857 Z"/>
        <path d="m 414.7266,207.17876 c -6.81897,0.003 -13.58054,0.44425 -19.69793,1.42565 l -23.86944,39.89786 c 22.62301,-4.64903 45.1711,-3.4193 59.17914,-0.2159 -2.87589,1.7103 -5.93876,3.40034 -9.26666,5.09516 -10.1167,5.06817 -18.57726,9.79134 -31.30386,15.13989 -10.05615,4.47533 -11.17173,5.1813 -18.58855,7.84605 l -0.89354,0.30621 c -7.91399,2.79555 7.2315,-0.1483 19.02529,-1.10437 13.02407,-0.64347 28.47798,-1.834 32.43332,-3.02196 6.3715,-2.3535 16.37313,-14.68884 19.83849,-20.32543 l 18.6237,-33.0608 1.73186,-3.06714 c -5.77021,-5.00119 -26.75492,-8.92357 -47.21182,-8.91527 z m 315.18202,43.57241 c -6.42483,-0.24417 -19.09135,7.2655 -26.73076,27.77489 -0.7995,2.92158 -2.03928,6.34654 -3.50386,12.66509 l -0.9889,4.02594 c -1.69957,8.51402 3.07958,-3.009 5.90334,-5.69755 9.08388,-10.72835 18.62748,-8.9245 21.89664,-4.1263 5.17855,10.04794 0.66485,28.43295 -16.18402,49.88736 -5.40936,6.68655 -17.25776,22.73772 -7.99665,14.0004 l 2.25895,-2.15351 c 8.4767,-8.07057 10.3593,-9.96434 15.87781,-16.75129 30.93674,-37.56476 26.12011,-75.64883 10.6672,-79.47445 -0.36949,-0.0835 -0.77141,-0.13442 -1.19975,-0.15061 z M 607.1931,251.3887 c -45.43853,0.0817 -147.33228,55.03309 -180.5092,84.5495 -38.07816,34.25175 -66.68992,69.84668 -61.49831,115.72787 2.73836,28.48171 59.3407,30.08252 77.5117,31.77071 124.27702,3.9525 282.19217,-18.693 347.5802,-16.23422 49.03491,0.91843 79.50892,35.3187 86.42193,42.03128 -5.60626,2.64954 -16.83482,4.67386 -36.82572,7.08303 -163.39966,19.69194 -318.50799,25.84462 -448.53463,25.66655 -20.50394,-0.36748 -44.53982,-0.0553 -62.13584,-10.60194 -7.52988,-4.5071 -13.12763,-9.54044 -17.99619,-14.80358 -4.6857,-5.52278 -8.51361,-10.00287 -16.96715,-23.21685 l -9.43232,53.47657 c 0.54303,1.17665 1.10266,2.25265 1.67161,3.26795 18.03891,35.24386 25.08673,64.68926 29.67744,90.59346 0.23542,1.3548 0.42924,2.8506 0.60237,4.3974 -0.53851,0.5459 -1.10564,1.112 -1.71176,1.7117 -3.3908,1.8332 -10.38436,6.9041 -20.82742,15.0697 -52.68291,40.5227 -107.72024,68.6471 -169.16931,77.0297 -45.535244,4.495 -66.277564,-6.8148 -78.299784,-16.4651 -19.48681,-13.6845 -37.1885198,-51.624 -31.28379,-92.8875 3.86561,-27.6394 10.43448,-42.5043 11.87197,-51.308 l 0.4267,-2.3995 c 3.63286,-22.42963 -19.2009298,31.252 -23.3423498,52.7286 -15.7771602,77.0441 13.7675998,124.1969 39.5866198,143.568 17.79862,13.548 39.98026,22.4062 81.040634,18.1067 56.9742,-8.578 114.6943,-36.5372 167.37724,-77.0599 34.51027,-26.9502 36.84144,-51.399 38.93402,-72.3312 0.0974,-2.2457 0.14496,-4.0762 0.15061,-5.6072 0.0581,-0.3802 0.10461,-0.6452 0.16578,-1.0491 1.27033,-14.7266 0.56256,-30.8729 -2.48484,-48.2108 16.43237,6.0149 35.9726,6.2467 53.23061,6.556 130.02667,0.1781 285.13497,-5.9797 448.53464,-25.67161 20.2455,-2.43986 31.56003,-4.47867 37.09175,-7.1784 8.12674,-3.88265 15.88353,-25.56064 21.08843,-37.34777 28.68212,-67.45251 -37.93036,-104.73895 -89.94585,-105.71325 -65.21277,-2.32387 -214.65899,22.50591 -338.93601,18.5534 -18.74588,-0.10897 -65.77861,-3.76033 -76.55289,-22.88555 -2.51601,-2.30454 14.61915,-21.87579 42.25217,-39.92799 48.11613,-33.15217 139.75185,-82.92002 171.72945,-73.12431 9.67232,2.87466 10.18998,18.84733 14.29155,4.30704 l 7.32398,-25.9878 c 4.84511,-17.11691 0.83641,-24.54961 -3.81007,-25.44567 -2.49031,-0.50609 -5.26861,-0.74337 -8.29784,-0.73792 z m -560.693384,16.30451 -8.68938,19.31641 c 7.21377,7.07835 32.71606,48.2651 20.52621,102.14414 -7.79054,26.83986 -21.36393,50.06683 -16.13886,70.46881 5.41229,20.42762 31.72205,17.00624 37.41804,-1.58628 l 2.71577,-19.56241 c 2.08242,-29.27173 -19.69714,-29.88358 -27.3181,-24.96376 l -6.17945,19.72805 c 1.37712,-11.53508 8.66306,-23.67134 13.66407,-42.92984 20.9871,-68.82979 -8.78453,-115.53678 -15.9983,-122.61512 z m 807.258914,0.83831 c -0.35327,0.0442 -0.78339,0.99612 -1.18467,3.12234 l -0.0154,0.0702 c -1.4082,7.07087 -5.324,16.03903 -7.21354,20.94788 -6.06167,15.31681 -12.3099,31.29013 -12.91109,43.44186 -1.0513,11.89233 2.66308,21.49558 9.12611,27.92548 4.65997,4.65673 11.08948,5.43059 18.31245,-1.27002 4.81552,-4.94457 8.21213,-13.81554 8.7697,-22.47893 0.50087,-3.81161 0.10023,-9.93882 -0.3514,-13.20725 -0.946,-6.96192 -0.0748,-1.85762 -3.27796,7.36412 -2.78712,6.49667 -6.4721,7.49891 -7.62518,7.6553 -2.56395,0.73682 -7.0473,1.38594 -10.51158,-2.51496 -4.804,-5.58259 -4.00165,-14.33285 -3.24283,-20.83243 1.19531,-9.22916 7.14879,-26.92958 9.46747,-37.07165 1.9512,-7.43262 1.56043,-13.26474 0.65758,-13.15204 z m 14.5325,58.55166 c 0.018,0.1303 0.0262,0.1925 0.0452,0.33129 l -0.0753,-0.59736 c 0.0103,0.0733 0.0206,0.18942 0.0301,0.26607 z m -567.16399,1.21479 c -6.33295,-0.36895 -18.86876,6.86597 -26.53499,27.03699 -0.88005,2.91457 -2.24496,6.59603 -3.60926,12.43419 l -0.88349,3.60426 c -1.59903,8.0336 3.04996,-3.22793 5.7929,-5.92345 9.05555,-11.08935 18.75226,-9.5711 22.1125,-4.88432 5.52838,9.85094 1.35466,28.89741 -15.93806,50.89135 -5.41269,6.69007 -16.95972,22.25923 -8.27273,14.06566 l 1.9979,-1.89751 c 7.9026,-7.52679 10.08655,-9.9026 15.60172,-16.68602 30.49289,-37.02521 26.01597,-74.44278 10.91319,-78.46546 -0.3638,-0.0905 -0.75748,-0.15112 -1.17968,-0.1758 z m 939.37166,7.37921 c -7.6085,0.25856 -18.7843,7.75584 -24.6274,18.41284 -3.0554,5.09225 -8.0067,15.28379 -0.1355,22.6446 2.0152,1.85525 7.1686,5.40802 12.6551,9.1763 -8.2405,9.16993 -20.4672,20.58546 -33.9192,31.09804 -29.0379,21.8954 -56.422,40.01823 -75.3782,52.55291 -6.7398,4.44444 -27.7955,15.1099 -15.6017,10.75256 l 4.2669,-1.66159 c 10.0097,-3.59098 16.8189,-6.50928 26.289,-11.06375 26.6599,-12.7889 57.4021,-32.30088 78.8068,-53.54687 9.16,-8.11662 16.1627,-16.36219 21.5502,-23.97988 0.4347,0.3031 0.8683,0.59854 1.2951,0.89855 4.2665,2.93588 13.0736,8.15027 9.8289,19.10057 -6.974,18.73594 -16.4586,44.67064 -2.9918,62.46716 6.1328,8.34765 20.999,6.80702 23.1165,-16.67096 0.053,-5.3999 0.028,-7.53201 -0.2862,-11.31977 l -0.1606,-1.7168 c -0.5707,-6.53419 0.029,2.12749 -2.0632,8.31288 -2.376,5.23996 -9.8004,10.45432 -15.5615,4.68354 -9.9855,-10.02098 -5.7803,-24.65242 2.1886,-45.84138 10.8082,-26.57734 0.094,-32.1543 -2.9768,-34.85791 -0.7975,-0.56053 -1.6037,-1.1024 -2.4246,-1.67161 0.2465,-0.49803 0.5339,-1.03573 0.7631,-1.51599 9.4256,-20.96718 7.0309,-31.08365 -0.045,-35.22437 -1.266,-0.76147 -2.8323,-1.08875 -4.5881,-1.02907 z m -11.0587,16.39485 c 3.1915,-0.23749 5.825,1.89213 6.5911,3.12237 1.5324,2.16665 3.9525,8.33364 2.9818,14.54754 -5.3007,-3.64134 -10.2265,-7.04848 -12.1833,-8.84999 -1.05,-1.0273 -4.1701,-2.89211 -3.4586,-5.13032 2.0364,-2.54945 4.1541,-3.54709 6.069,-3.6896 z m -1059.51203,0.36645 c -6.81897,0.003 -13.58057,0.44423 -19.69796,1.42565 l -23.86944,39.89786 c 22.62052,-4.64851 45.16576,-3.4185 59.17413,-0.21589 -2.87445,1.70929 -5.93568,3.40136 -9.26163,5.09518 -10.11672,5.06816 -18.57726,9.79134 -31.30386,15.13989 -10.05614,4.47533 -11.17173,5.18128 -18.58854,7.84603 l -0.89354,0.30623 c -7.91399,2.7955 7.2315,-0.1483 19.02526,-1.10437 13.0241,-0.64347 28.47801,-1.834 32.43335,-3.02196 6.37147,-2.3535 16.3731,-14.68885 19.83849,-20.32543 l 18.62367,-33.0608 1.73186,-3.06714 c -5.77021,-5.00119 -26.75492,-8.9236 -47.21179,-8.91527 z m 851.11243,10.72244 c -1.3724,0.0892 -2.6428,0.65506 -3.8201,1.63144 -9.9518,8.2797 -12.6829,44.56958 -17.0826,70.19774 -2.89314,-23.47176 -14.00884,-58.43138 -37.43304,-61.06159 -0.565,0.2994 -0.994,0.71849 -1.2751,1.22988 l -7.3089,13.63392 c -2.155,4.11741 0.8884,12.89097 15.7071,15.7172 l 3.7047,-5.22065 c 10.0112,11.95907 17.4973,31.14425 22.499,53.43139 l 4.85424,-3.99581 c 7.571,-21.59091 5.5011,-57.71623 14.3568,-64.26425 3.2432,-2.4073 8.11,-1.14036 15.8276,5.80295 l 5.4165,-13.23236 c -6.2847,-10.11513 -11.3287,-14.13729 -15.4462,-13.86986 z M 59.164816,432.84663 c 7.24122,-0.17657 15.43381,2.54634 18.88973,11.65109 -8.68233,7.05339 -27.40766,10.08778 -29.19048,-3.64443 -0.25794,-1.82859 -0.32084,-3.63907 -0.22592,-5.45156 2.44611,-1.37411 6.32115,-2.4525 10.52664,-2.5551 z m 101.466464,48.37638 -31.72552,39.12481 c 9.65967,8.80506 21.78745,19.93022 30.22457,28.06604 l 31.73055,-39.12982 c -8.43714,-8.13582 -20.56993,-19.25596 -30.2296,-28.06103 z m 717.303,29.22064 c 0.10409,0.091 0.57042,0.57456 0.65259,0.6375 -0.26609,-0.0154 -0.46692,-0.30395 -0.65259,-0.6375 z m 125.06992,12.53458 c -6.42494,-0.24416 -19.09624,7.26548 -26.73584,27.77489 -0.7994,2.92162 -2.0391,6.34655 -3.5039,12.6651 l -0.9889,4.02594 c -1.6994,8.51397 3.0798,-3.009 5.9034,-5.69755 9.084,-10.72835 18.6275,-8.9245 21.8966,-4.12633 5.17844,10.04795 0.66494,28.43295 -16.184,49.88735 -5.4094,6.6866 -17.2578,22.7378 -7.9966,14.0004 l 2.2589,-2.1535 c 8.4767,-8.0705 10.3593,-9.9643 15.8778,-16.7513 30.93674,-37.5647 26.12004,-75.64879 10.66724,-79.47441 -0.3695,-0.0835 -0.7664,-0.13442 -1.1947,-0.15061 z m 227.9971,23.16165 c -38.3837,0.0902 -83.8639,34.24725 -117.003,67.54225 -21.8621,21.6562 -87.5773,111.9615 -154.66694,144.9485 -39.6947,17.7544 -75.27692,15.952 -85.98522,-11.4303 -6.20387,-15.434 -8.07519,-29.8394 -2.9065,-56.2525 5.40188,-27.1948 19.5145,-54.2009 26.2589,-71.4879 l 1.5511,-3.9054 c 8.1257,-26.0233 -28.93044,33.0781 -38.13085,86.9088 -3.313,27.5921 -3.19839,47.829 4.71868,70.9106 12.76757,36.6492 51.86419,54.2171 92.08439,36.4843 69.69164,-32.8742 134.31574,-123.1868 156.17794,-144.843 35.8062,-41.6849 95.7791,-83.5347 137.0472,-62.0807 27.3899,13.0322 30.3532,24.0068 29.7377,5.7177 l 0.1154,-3.8954 c -1.4327,-42.80954 -13.9019,-46.57834 -23.7992,-52.80899 -7.8626,-4.03663 -16.3419,-5.82878 -25.1997,-5.80796 z M 163.01069,604.32503 c -0.3533,0.044 -0.78339,1.0012 -1.18469,3.1274 l -0.0154,0.07 c -1.40819,7.0709 -5.32397,16.039 -7.21353,20.9479 -6.06167,15.3168 -12.30988,31.2901 -12.91107,43.4418 -1.0513,11.8923 2.66308,21.4956 9.12611,27.9255 4.65997,4.6568 11.0895,5.4306 18.31245,-1.27 4.81552,-4.9446 8.2121,-13.8155 8.7697,-22.4789 0.50172,-3.8183 0.10126,-9.9634 -0.35139,-13.2274 -0.94089,-6.9271 -0.0784,-1.8272 -3.27797,7.3843 -2.78712,6.4966 -6.4721,7.4988 -7.62518,7.6552 -2.56392,0.7369 -7.04733,1.386 -10.51158,-2.5149 -4.804,-5.5826 -4.00165,-14.3328 -3.24283,-20.8324 1.19531,-9.2292 7.14877,-26.9296 9.46745,-37.0717 1.95122,-7.4326 1.56045,-13.2698 0.6576,-13.1571 z m 615.45505,18.1217 c -1.35952,0.09 -2.61122,0.652 -3.77494,1.6164 -10.10626,8.4027 -12.56828,45.9636 -17.14282,71.4527 -2.67087,-23.5659 -13.76181,-59.8031 -37.57366,-62.5374 -0.56883,0.3015 -1.00067,0.7227 -1.28508,1.2399 l -6.73163,12.5597 c -2.14579,4.1014 0.97239,12.8668 15.81255,15.6971 l 3.64442,-5.1353 c 10.1286,12.1755 17.55446,31.7145 22.39864,53.7075 l 4.37229,-3.5942 c 7.57095,-21.5909 5.67612,-58.5363 14.67806,-65.213 3.29719,-2.4549 8.20819,-1.1364 15.96316,6.0238 l 4.98975,-12.1732 c -6.25661,-9.9524 -11.27214,-13.9146 -15.35074,-13.644 z m -342.00312,6.1042 c -0.31657,-0.026 -0.71407,0.828 -1.08931,2.8212 l 0.0154,-0.095 c -1.31572,6.5976 -5.02568,15.5162 -6.93244,20.6065 -5.94043,15.1496 -12.17278,31.1794 -12.80065,43.2311 -1.04948,11.7134 2.50681,21.2835 8.91026,27.6845 4.61705,4.6315 10.97591,5.3628 18.03133,-1.1445 4.67694,-4.7847 8.06434,-13.3902 8.69943,-21.987 0.60712,-3.8878 0.229,-9.7174 -0.16552,-12.7454 -0.93251,-6.8564 -0.0401,-1.6825 -3.14244,7.4193 -2.70991,6.5633 -6.40376,7.8309 -7.69545,8.1473 -2.73114,0.9301 -7.28524,1.5317 -10.7927,-2.3945 -4.8633,-5.6115 -4.2196,-14.395 -3.4587,-21.0734 1.16837,-9.3292 7.13299,-26.9681 9.5729,-37.2775 1.93883,-7.3021 1.65735,-13.1256 0.84836,-13.1922 z m 167.71354,5.4265 c -9.41555,-0.063 -27.9962,1.8668 -37.21725,11.0135 l -7.17337,7.7105 c -9.97786,8.58 21.94927,19.7356 35.62092,24.999 14.66742,6.6026 34.82474,13.634 32.31787,25.1495 -0.57451,-1.3144 -5.49317,-2.9835 -31.40425,-15.3056 -15.62493,-7.2516 -39.91475,-17.1164 -51.86017,-29.9485 -10.2585,-11.8164 -6.10387,-20.8126 -8.02176,-12.9663 l -0.99393,4.3824 c -2.43115,10.0216 -1.05706,15.5394 1.59132,19.6427 6.82531,11.7438 25.365,16.8282 45.24399,27.2427 37.26172,15.5637 36.39647,24.1426 49.60125,8.4535 16.22419,-15.8734 -5.34312,-28.0779 -25.14951,-36.2334 -13.45347,-6.6928 -34.78209,-12.1947 -39.0294,-20.5563 9.95108,-4.1241 23.85173,-4.2128 33.17124,-3.3683 7.33806,1.0053 13.06209,2.698 15.59671,6.1794 2.83181,4.0945 0.51293,8.3653 2.13846,6.2247 l 0.26102,-0.3464 3.6143,-4.7739 0.26607,-0.3514 c 3.87753,-5.1216 3.67272,-8.8071 2.61532,-10.4463 -2.27688,-3.8371 -9.30773,-5.5203 -16.35971,-6.4054 -0.96903,-0.1627 -2.6563,-0.2816 -4.82912,-0.2961 z m 648.21974,6.3903 c -1.3725,0.089 -2.6429,0.655 -3.8201,1.6314 -9.9537,8.2813 -12.6814,44.5838 -17.0826,70.2128 -2.8904,-23.4719 -14.0038,-58.4459 -37.4331,-61.0766 -0.565,0.2993 -0.9888,0.7184 -1.27,1.2298 l -7.314,13.634 c -2.1549,4.1173 0.8883,12.8909 15.7072,15.7172 l 3.7097,-5.2207 c 9.8405,11.7552 17.2283,30.5049 22.2279,52.3069 -2.165,3.6233 -4.6238,7.5097 -7.1633,10.6421 -12.5279,16.6086 -24.218,26.5507 -38.1861,35.9623 -13.6408,9.1412 -22.4155,13.6375 -37.0717,22.3786 -5.7488,3.6901 -26.6428,13.4222 -13.3679,9.7084 l 2.3342,-0.6978 c 10.2394,-2.7727 17.5795,-4.7259 25.0592,-7.1282 20.2931,-6.8385 28.4302,-10.7908 41.6247,-20.1296 8.307,-6.568 18.1772,-19.8022 25.1445,-32.9353 2.56,-5.0112 3.5636,-8.5395 5.6323,-16.0787 l 1.0592,-4.5479 0.055,-0.045 c 7.571,-21.5909 5.5063,-57.7162 14.3618,-64.2642 3.2432,-2.4073 8.105,-1.1404 15.8226,5.8029 l 5.4215,-13.2323 c -6.2847,-10.1152 -11.3337,-14.1373 -15.4511,-13.8699 z"/>
    </symbol>
</svg>