<svg xmlns="http://www.w3.org/2000/svg" width="44" height="44">
    <path d="M0,0z m 20,0 2,2 -5.029297,5.0292969 H 7.0292969 V 16.970703 L 2,22 0,20 v 4 4 l 2,-2 5.0292969,5.029297 v 9.941406 H 16.970703 L 20,44 h 8 l 3.029297,-3.029297 h 9.941406 V 31.029297 L 44,28 V 20 L 40.970703,16.970703 V 7.0292969 H 31.029297 L 26,2 28,0 h -4 z m 4,4 5.857422,5.8574219 h 8.285156 V 18.142578 L 44,24 38.142578,29.857422 v 8.285156 H 29.857422 L 24,44 18.142578,38.142578 H 9.8574219 V 29.857422 L 4,24 9.8574219,18.142578 V 9.8574219 h 8.2851561 z"/>
</svg>